<svg width="24" height="24" viewBox="0 0 21 16" fill="none" xmlns="http://www.w3.org/2000/svg">
<path d="M0 3.13648V15.3118C0 15.7098 0.416719 15.9819 0.799896 15.8342L5.83333 13.625V0.125L0.733542 2.09199C0.517044 2.17549 0.331454 2.31962 0.200707 2.50579C0.0699594 2.69197 5.18513e-05 2.91164 0 3.13648H0ZM7 13.625L14 15.875V2.375L7 0.125V13.625ZM20.2001 0.165781L15.1667 2.375V15.875L20.2665 13.908C20.483 13.8245 20.6686 13.6804 20.7994 13.4942C20.9301 13.3081 21 13.0884 21 12.8635V0.688203C21 0.290234 20.5833 0.018125 20.2001 0.165781Z" fill="#F1C553"/>
</svg>
